<?xml version="1.0" standalone="no"?>
<!DOCTYPE svg PUBLIC "-//W3C//DTD SVG 20010904//EN"
 "http://www.w3.org/TR/2001/REC-SVG-20010904/DTD/svg10.dtd">
<svg version="1.0" xmlns="http://www.w3.org/2000/svg"
 width="512.000000pt" height="512.000000pt" viewBox="0 0 512.000000 512.000000"
 preserveAspectRatio="xMidYMid meet">
<metadata>
Created by potrace 1.14, written by Peter Selinger 2001-2017
</metadata>
<g transform="translate(0.000000,512.000000) scale(0.100000,-0.100000)"
fill="#000000" stroke="none">
<path d="M1233 5110 c-12 -5 -30 -21 -40 -37 -17 -26 -18 -132 -18 -2507 -1
-2710 -5 -2523 55 -2553 31 -16 2613 -19 2654 -3 14 5 33 21 43 37 17 26 18
135 18 2507 0 2709 4 2524 -55 2553 -20 10 -306 13 -1330 12 -730 0 -1315 -4
-1327 -9z"/>
<path d="M4895 4561 c-151 -86 -162 -93 -176 -116 -10 -15 -14 -74 -14 -228
-1 -114 -4 -209 -7 -212 -3 -3 -18 0 -34 6 -50 20 -182 14 -246 -10 -75 -29
-150 -97 -185 -168 -36 -74 -38 -182 -5 -256 64 -143 247 -230 406 -192 131
31 234 127 262 245 4 19 8 186 8 370 l1 334 94 56 c124 73 151 127 93 191 -45
51 -80 47 -197 -20z m-289 -745 c58 -13 105 -80 94 -133 -15 -65 -75 -107
-152 -106 -147 2 -196 162 -70 229 40 21 67 23 128 10z"/>
<path d="M779 1736 c-14 -6 -76 -40 -137 -75 -85 -50 -115 -72 -127 -97 -12
-27 -15 -70 -14 -229 1 -107 -1 -198 -4 -201 -3 -3 -25 0 -48 7 -231 62 -463
-111 -445 -333 10 -121 79 -217 195 -271 57 -27 76 -31 155 -31 80 0 98 4 147
28 94 46 153 111 185 198 13 36 16 101 16 378 1 184 3 340 5 347 3 6 45 35 94
63 91 53 117 81 115 130 -4 69 -75 114 -137 86z m-333 -810 c36 -24 58 -76 50
-119 -7 -38 -63 -96 -94 -98 -9 0 -26 -2 -37 -4 -64 -13 -148 44 -160 108 -21
108 136 181 241 113z"/>
</g>
</svg>
